<svg xmlns="http://www.w3.org/2000/svg" xmlns:xlink="http://www.w3.org/1999/xlink" width="500" zoomAndPan="magnify" viewBox="0 0 375 374.999991" height="500" preserveAspectRatio="xMidYMid meet" version="1.2"><defs><clipPath id="82a4c92db4"><path d="M 131 124 L 315 124 L 315 244.695312 L 131 244.695312 Z M 131 124 "/></clipPath></defs><g id="c6093efe5f"><g clip-rule="nonzero" clip-path="url(#82a4c92db4)"><path style=" stroke:none;fill-rule:nonzero;fill:#131229;fill-opacity:1;" d="M 305.921875 124.640625 C 300.980469 124.640625 296.976562 128.640625 296.976562 133.585938 L 296.976562 161.808594 L 253.433594 161.214844 C 251.011719 161.175781 248.6875 162.125 246.980469 163.835938 L 187.488281 223.328125 L 146.664062 182.503906 C 143.167969 179.007812 137.503906 179.007812 134.011719 182.503906 C 130.515625 186.003906 130.515625 191.667969 134.011719 195.15625 L 181.160156 242.304688 C 182.90625 244.050781 185.203125 244.925781 187.488281 244.925781 C 189.773438 244.925781 192.070312 244.050781 193.8125 242.304688 L 256.96875 179.152344 L 296.976562 179.703125 L 296.976562 206.726562 C 296.976562 211.667969 300.980469 215.671875 305.921875 215.671875 C 310.867188 215.671875 314.871094 211.667969 314.871094 206.726562 L 314.871094 133.585938 C 314.871094 128.640625 310.867188 124.640625 305.921875 124.640625 Z M 305.921875 124.640625 "/></g><path style=" stroke:none;fill-rule:nonzero;fill:#131229;fill-opacity:1;" d="M 333.433594 129.871094 C 328.488281 129.871094 324.484375 133.875 324.484375 138.820312 L 324.484375 201.492188 C 324.484375 206.4375 328.488281 210.441406 333.433594 210.441406 C 338.375 210.441406 342.378906 206.4375 342.378906 201.492188 L 342.378906 138.820312 C 342.390625 133.875 338.375 129.871094 333.433594 129.871094 Z M 333.433594 129.871094 "/><path style=" stroke:none;fill-rule:nonzero;fill:#131229;fill-opacity:1;" d="M 360.953125 139.269531 C 356.007812 139.269531 352.003906 143.273438 352.003906 148.21875 L 352.003906 192.101562 C 352.003906 197.046875 356.007812 201.050781 360.953125 201.050781 C 365.894531 201.050781 369.898438 197.046875 369.898438 192.101562 L 369.898438 148.21875 C 369.898438 143.273438 365.894531 139.269531 360.953125 139.269531 Z M 360.953125 139.269531 "/><path style=" stroke:none;fill-rule:nonzero;fill:#8900ff;fill-opacity:1;" d="M 259.644531 90.695312 C 240.003906 71.066406 209.203125 69.238281 187.496094 85.246094 C 178.015625 78.222656 166.585938 74.4375 154.574219 74.4375 C 139.753906 74.4375 125.816406 80.210938 115.332031 90.683594 C 107.300781 98.71875 101.984375 108.851562 99.96875 120.003906 C 98 130.875 99.28125 141.964844 103.675781 152.066406 C 103.9375 152.683594 104.21875 153.289062 104.507812 153.882812 L 78.007812 153.882812 L 78.007812 126.265625 C 78.007812 121.320312 74.003906 117.320312 69.0625 117.320312 C 64.117188 117.320312 60.113281 121.320312 60.113281 126.265625 L 60.113281 199.414062 C 60.113281 204.359375 64.117188 208.363281 69.0625 208.363281 C 74.003906 208.363281 78.007812 204.359375 78.007812 199.414062 L 78.007812 171.785156 L 121.667969 171.785156 C 125.285156 171.785156 128.554688 169.609375 129.9375 166.265625 C 131.320312 162.921875 130.5625 159.070312 127.996094 156.515625 C 124.632812 153.152344 121.976562 149.257812 120.097656 144.9375 C 113.894531 130.675781 116.996094 114.34375 127.996094 103.347656 C 135.097656 96.242188 144.53125 92.339844 154.582031 92.339844 C 164.625 92.339844 174.066406 96.253906 181.171875 103.347656 C 184.667969 106.84375 190.335938 106.84375 193.824219 103.347656 C 208.480469 88.6875 232.332031 88.6875 246.992188 103.347656 C 254.09375 110.449219 257.996094 119.886719 258.007812 129.925781 C 258.007812 133.105469 257.609375 136.277344 256.8125 139.351562 C 255.585938 144.140625 258.457031 149.011719 263.25 150.25 C 268.03125 151.488281 272.910156 148.605469 274.148438 143.816406 C 275.3125 139.289062 275.910156 134.617188 275.910156 129.925781 C 275.890625 115.105469 270.117188 101.167969 259.644531 90.695312 Z M 259.644531 90.695312 "/><path style=" stroke:none;fill-rule:nonzero;fill:#8900ff;fill-opacity:1;" d="M 41.542969 122.550781 C 36.597656 122.550781 32.59375 126.554688 32.59375 131.5 L 32.59375 194.171875 C 32.59375 199.117188 36.597656 203.121094 41.542969 203.121094 C 46.484375 203.121094 50.488281 199.117188 50.488281 194.171875 L 50.488281 131.5 C 50.488281 126.554688 46.484375 122.550781 41.542969 122.550781 Z M 41.542969 122.550781 "/><path style=" stroke:none;fill-rule:nonzero;fill:#8900ff;fill-opacity:1;" d="M 14.023438 131.949219 C 9.082031 131.949219 5.078125 135.953125 5.078125 140.898438 L 5.078125 184.78125 C 5.078125 189.726562 9.082031 193.730469 14.023438 193.730469 C 18.96875 193.730469 22.972656 189.726562 22.972656 184.78125 L 22.972656 140.898438 C 22.972656 135.953125 18.96875 131.949219 14.023438 131.949219 Z M 14.023438 131.949219 "/><g style="fill:#131229;fill-opacity:1;"><g transform="translate(3.968941, 301.315439)"><path style="stroke:none" d="M 5.359375 -60.765625 L 25.59375 -60.765625 L 25.59375 -33.609375 L 44.28125 -33.609375 L 44.28125 -21.65625 L 25.59375 -21.65625 L 25.59375 0 L 5.359375 0 Z M 28.796875 -48.625 L 28.796875 -60.765625 L 59.671875 -60.765625 L 59.671875 -40.609375 L 39.421875 -40.609375 L 39.421875 -48.625 Z M 28.796875 -48.625 "/></g></g><g style="fill:#131229;fill-opacity:1;"><g transform="translate(69.142765, 301.315439)"><path style="stroke:none" d="M 34.0625 0 L 16.125 0 L 4.765625 -11.359375 L 4.765625 -67.171875 L 25 -67.171875 L 25 -12.140625 L 34.0625 -12.140625 Z M 34.0625 0 "/></g></g><g style="fill:#131229;fill-opacity:1;"><g transform="translate(107.939515, 301.315439)"><path style="stroke:none" d="M 24.59375 0 L 16.484375 0 L 4.34375 -12.140625 L 4.34375 -36.5 L 16.484375 -48.625 L 24.59375 -48.625 Z M 27.796875 -19.5 L 27.796875 -27.984375 L 38.46875 -27.984375 L 38.46875 -36.5 L 27.796875 -36.5 L 27.796875 -48.625 L 44.96875 -48.625 L 57.109375 -36.5 L 57.109375 -19.5 Z M 27.796875 0 L 27.796875 -11.359375 L 55 -11.359375 L 55 -6.09375 L 48.953125 0 Z M 27.796875 0 "/></g></g><g style="fill:#131229;fill-opacity:1;"><g transform="translate(173.204927, 301.315439)"><path style="stroke:none" d="M 20.421875 -48.625 L 52.796875 0 L 31.78125 0 L -0.640625 -48.625 Z M 28.34375 -41.90625 L 31.78125 -48.625 L 52.796875 -48.625 L 38.78125 -26.1875 Z M 20.421875 0 L -0.640625 0 L 12.875 -23.171875 L 23.71875 -6.828125 Z M 20.421875 0 "/></g></g><g style="fill:#131229;fill-opacity:1;"><g transform="translate(229.723779, 301.315439)"><path style="stroke:none" d="M 5.359375 -60.765625 L 25.59375 -60.765625 L 25.59375 -33.609375 L 44.28125 -33.609375 L 44.28125 -21.65625 L 25.59375 -21.65625 L 25.59375 0 L 5.359375 0 Z M 28.796875 -48.625 L 28.796875 -60.765625 L 59.671875 -60.765625 L 59.671875 -40.609375 L 39.421875 -40.609375 L 39.421875 -48.625 Z M 28.796875 -48.625 "/></g></g><g style="fill:#131229;fill-opacity:1;"><g transform="translate(294.897603, 301.315439)"><path style="stroke:none" d="M 4.8125 -48.625 L 25.09375 -48.625 L 25.09375 0 L 4.8125 0 Z M 4.8125 -67.59375 L 25.09375 -67.59375 L 25.09375 -54.671875 L 4.8125 -54.671875 Z M 4.8125 -67.59375 "/></g></g><g style="fill:#131229;fill-opacity:1;"><g transform="translate(329.114978, 301.315439)"><path style="stroke:none" d="M 25.546875 -12.140625 L 38.921875 -12.140625 L 38.921875 0 L 17.5 0 L 5.3125 -12.140625 L 5.3125 -36.5 L 1.28125 -36.5 L 1.28125 -48.625 L 5.3125 -48.625 L 5.3125 -53.890625 L 25.546875 -60.765625 Z M 28.75 -36.5 L 28.75 -48.625 L 39.65625 -48.625 L 39.65625 -36.5 Z M 28.75 -36.5 "/></g></g></g></svg>