<svg xmlns="http://www.w3.org/2000/svg" xmlns:xlink="http://www.w3.org/1999/xlink" width="500" zoomAndPan="magnify" viewBox="0 0 375 374.999991" height="500" preserveAspectRatio="xMidYMid meet" version="1.2"><defs><clipPath id="52cbf5d1f8"><path d="M 131 92 L 315 92 L 315 213 L 131 213 Z M 131 92 "/></clipPath><clipPath id="c6ff10d2eb"><rect x="0" width="372" y="0" height="118"/></clipPath></defs><g id="c0ee8da97c"><g clip-rule="nonzero" clip-path="url(#52cbf5d1f8)"><path style=" stroke:none;fill-rule:nonzero;fill:#f2f2f2;fill-opacity:1;" d="M 305.921875 92.945312 C 300.980469 92.945312 296.976562 96.949219 296.976562 101.890625 L 296.976562 130.117188 L 253.433594 129.519531 C 251.011719 129.484375 248.6875 130.433594 246.980469 132.140625 L 187.488281 191.632812 L 146.664062 150.8125 C 143.167969 147.3125 137.503906 147.3125 134.011719 150.8125 C 130.515625 154.308594 130.515625 159.976562 134.011719 163.464844 L 181.160156 210.613281 C 182.90625 212.355469 185.203125 213.234375 187.488281 213.234375 C 189.773438 213.234375 192.070312 212.355469 193.8125 210.613281 L 256.96875 147.457031 L 296.976562 148.007812 L 296.976562 175.03125 C 296.976562 179.976562 300.980469 183.980469 305.921875 183.980469 C 310.867188 183.980469 314.871094 179.976562 314.871094 175.03125 L 314.871094 101.890625 C 314.871094 96.949219 310.867188 92.945312 305.921875 92.945312 Z M 305.921875 92.945312 "/></g><path style=" stroke:none;fill-rule:nonzero;fill:#f2f2f2;fill-opacity:1;" d="M 333.433594 98.175781 C 328.488281 98.175781 324.484375 102.179688 324.484375 107.125 L 324.484375 169.796875 C 324.484375 174.742188 328.488281 178.746094 333.433594 178.746094 C 338.375 178.746094 342.378906 174.742188 342.378906 169.796875 L 342.378906 107.125 C 342.390625 102.179688 338.375 98.175781 333.433594 98.175781 Z M 333.433594 98.175781 "/><path style=" stroke:none;fill-rule:nonzero;fill:#f2f2f2;fill-opacity:1;" d="M 360.953125 107.578125 C 356.007812 107.578125 352.003906 111.578125 352.003906 116.523438 L 352.003906 160.410156 C 352.003906 165.351562 356.007812 169.355469 360.953125 169.355469 C 365.894531 169.355469 369.898438 165.351562 369.898438 160.410156 L 369.898438 116.523438 C 369.898438 111.578125 365.894531 107.578125 360.953125 107.578125 Z M 360.953125 107.578125 "/><path style=" stroke:none;fill-rule:nonzero;fill:#8900ff;fill-opacity:1;" d="M 259.644531 59 C 240.003906 39.371094 209.203125 37.546875 187.496094 53.550781 C 178.015625 46.527344 166.585938 42.742188 154.574219 42.742188 C 139.753906 42.742188 125.816406 48.515625 115.332031 58.992188 C 107.300781 67.023438 101.984375 77.15625 99.96875 88.308594 C 98 99.179688 99.28125 110.269531 103.675781 120.375 C 103.9375 120.988281 104.21875 121.59375 104.507812 122.191406 L 78.007812 122.191406 L 78.007812 94.570312 C 78.007812 89.628906 74.003906 85.625 69.0625 85.625 C 64.117188 85.625 60.113281 89.628906 60.113281 94.570312 L 60.113281 167.71875 C 60.113281 172.664062 64.117188 176.667969 69.0625 176.667969 C 74.003906 176.667969 78.007812 172.664062 78.007812 167.71875 L 78.007812 140.09375 L 121.667969 140.09375 C 125.285156 140.09375 128.554688 137.914062 129.9375 134.570312 C 131.320312 131.226562 130.5625 127.378906 127.996094 124.820312 C 124.632812 121.457031 121.976562 117.5625 120.097656 113.242188 C 113.894531 98.980469 116.996094 82.652344 127.996094 71.652344 C 135.097656 64.550781 144.53125 60.644531 154.582031 60.644531 C 164.625 60.644531 174.066406 64.558594 181.171875 71.652344 C 184.667969 75.148438 190.335938 75.148438 193.824219 71.652344 C 208.480469 56.992188 232.332031 56.992188 246.992188 71.652344 C 254.09375 78.753906 257.996094 88.191406 258.007812 98.230469 C 258.007812 101.414062 257.609375 104.585938 256.8125 107.65625 C 255.585938 112.449219 258.457031 117.320312 263.25 118.558594 C 268.03125 119.792969 272.910156 116.910156 274.148438 112.121094 C 275.3125 107.59375 275.910156 102.921875 275.910156 98.230469 C 275.890625 83.410156 270.117188 69.472656 259.644531 59 Z M 259.644531 59 "/><path style=" stroke:none;fill-rule:nonzero;fill:#8900ff;fill-opacity:1;" d="M 41.542969 90.855469 C 36.597656 90.855469 32.59375 94.859375 32.59375 99.804688 L 32.59375 162.476562 C 32.59375 167.421875 36.597656 171.425781 41.542969 171.425781 C 46.484375 171.425781 50.488281 167.421875 50.488281 162.476562 L 50.488281 99.804688 C 50.488281 94.859375 46.484375 90.855469 41.542969 90.855469 Z M 41.542969 90.855469 "/><path style=" stroke:none;fill-rule:nonzero;fill:#8900ff;fill-opacity:1;" d="M 14.023438 100.257812 C 9.082031 100.257812 5.078125 104.257812 5.078125 109.203125 L 5.078125 153.089844 C 5.078125 158.03125 9.082031 162.035156 14.023438 162.035156 C 18.96875 162.035156 22.972656 158.03125 22.972656 153.089844 L 22.972656 109.203125 C 22.972656 104.257812 18.96875 100.257812 14.023438 100.257812 Z M 14.023438 100.257812 "/><g transform="matrix(1,0,0,1,3,208)"><g clip-path="url(#c6ff10d2eb)"><g style="fill:#f2f2f2;fill-opacity:1;"><g transform="translate(0.999739, 86.024555)"><path style="stroke:none" d="M 5.359375 -60.765625 L 25.59375 -60.765625 L 25.59375 -33.609375 L 44.28125 -33.609375 L 44.28125 -21.65625 L 25.59375 -21.65625 L 25.59375 0 L 5.359375 0 Z M 28.796875 -48.625 L 28.796875 -60.765625 L 59.671875 -60.765625 L 59.671875 -40.609375 L 39.421875 -40.609375 L 39.421875 -48.625 Z M 28.796875 -48.625 "/></g></g><g style="fill:#f2f2f2;fill-opacity:1;"><g transform="translate(66.155873, 86.024555)"><path style="stroke:none" d="M 34.0625 0 L 16.125 0 L 4.765625 -11.359375 L 4.765625 -67.171875 L 25 -67.171875 L 25 -12.140625 L 34.0625 -12.140625 Z M 34.0625 0 "/></g></g><g style="fill:#f2f2f2;fill-opacity:1;"><g transform="translate(104.9426, 86.024555)"><path style="stroke:none" d="M 24.59375 0 L 16.484375 0 L 4.34375 -12.140625 L 4.34375 -36.5 L 16.484375 -48.625 L 24.59375 -48.625 Z M 27.796875 -19.5 L 27.796875 -27.984375 L 38.46875 -27.984375 L 38.46875 -36.5 L 27.796875 -36.5 L 27.796875 -48.625 L 44.96875 -48.625 L 57.109375 -36.5 L 57.109375 -19.5 Z M 27.796875 0 L 27.796875 -11.359375 L 55 -11.359375 L 55 -6.09375 L 48.953125 0 Z M 27.796875 0 "/></g></g><g style="fill:#f2f2f2;fill-opacity:1;"><g transform="translate(170.190295, 86.024555)"><path style="stroke:none" d="M 20.421875 -48.625 L 52.796875 0 L 31.78125 0 L -0.640625 -48.625 Z M 28.34375 -41.90625 L 31.78125 -48.625 L 52.796875 -48.625 L 38.78125 -26.1875 Z M 20.421875 0 L -0.640625 0 L 12.875 -23.171875 L 23.71875 -6.828125 Z M 20.421875 0 "/></g></g><g style="fill:#f2f2f2;fill-opacity:1;"><g transform="translate(226.693947, 86.024555)"><path style="stroke:none" d="M 5.359375 -60.765625 L 25.59375 -60.765625 L 25.59375 -33.609375 L 44.28125 -33.609375 L 44.28125 -21.65625 L 25.59375 -21.65625 L 25.59375 0 L 5.359375 0 Z M 28.796875 -48.625 L 28.796875 -60.765625 L 59.671875 -60.765625 L 59.671875 -40.609375 L 39.421875 -40.609375 L 39.421875 -48.625 Z M 28.796875 -48.625 "/></g></g><g style="fill:#f2f2f2;fill-opacity:1;"><g transform="translate(291.850081, 86.024555)"><path style="stroke:none" d="M 4.8125 -48.625 L 25.09375 -48.625 L 25.09375 0 L 4.8125 0 Z M 4.8125 -67.59375 L 25.09375 -67.59375 L 25.09375 -54.671875 L 4.8125 -54.671875 Z M 4.8125 -67.59375 "/></g></g><g style="fill:#f2f2f2;fill-opacity:1;"><g transform="translate(326.058787, 86.024555)"><path style="stroke:none" d="M 25.546875 -12.140625 L 38.921875 -12.140625 L 38.921875 0 L 17.5 0 L 5.3125 -12.140625 L 5.3125 -36.5 L 1.28125 -36.5 L 1.28125 -48.625 L 5.3125 -48.625 L 5.3125 -53.890625 L 25.546875 -60.765625 Z M 28.75 -36.5 L 28.75 -48.625 L 39.65625 -48.625 L 39.65625 -36.5 Z M 28.75 -36.5 "/></g></g></g></g></g></svg>